<mxfile host="app.diagrams.net" modified="2023-06-23T01:22:51.439Z" agent="Mozilla/5.0 (Windows NT 10.0; Win64; x64) AppleWebKit/537.36 (KHTML, like Gecko) Chrome/114.0.0.0 Safari/537.36" version="21.5.0" etag="29h1jIy0UMD4AsVMIMmn" type="github">
  <diagram name="Страница 1" id="CZsw0RW9f0ogWXaVMtE9">
    <mxGraphModel>
      <root>
        <mxCell id="0" />
        <mxCell id="1" parent="0" />
      </root>
    </mxGraphModel>
  </diagram>
</mxfile>
